<svg xmlns="http://www.w3.org/2000/svg" width="16" height="16" fill="none" viewBox="0 0 16 16"><rect width="3.415" height="11.383" y=".175" fill="url(#paint0_linear_3_515)" rx=".25"/><rect width="3.415" height="2.846" y="12.696" fill="url(#paint1_linear_3_515)" opacity=".4" rx=".25"/><rect width="3.415" height="11.383" x="4.553" y=".175" fill="url(#paint2_linear_3_515)" rx=".25"/><rect width="3.415" height="2.846" x="4.553" y="12.696" fill="url(#paint3_linear_3_515)" opacity=".4" rx=".25"/><rect width="3.415" height="11.383" x="8.537" y=".928" fill="url(#paint4_linear_3_515)" rx=".25" transform="rotate(-15.7694 8.53735 0.927979)"/><rect width="3.415" height="2.846" x="11.94" y="12.978" fill="url(#paint5_linear_3_515)" opacity=".4" rx=".25" transform="rotate(-15.7694 11.9402 12.9783)"/><defs><linearGradient id="paint0_linear_3_515" x1="3.415" x2="-1.938" y1=".175" y2="2.415" gradientUnits="userSpaceOnUse"><stop stop-color="#9121C2"/><stop offset="1" stop-color="#BB399C"/></linearGradient><linearGradient id="paint1_linear_3_515" x1="3.415" x2="1.76" y1="12.696" y2="15.466" gradientUnits="userSpaceOnUse"><stop stop-color="#9121C2"/><stop offset="1" stop-color="#BB399C"/></linearGradient><linearGradient id="paint2_linear_3_515" x1="7.968" x2="2.615" y1=".175" y2="2.415" gradientUnits="userSpaceOnUse"><stop stop-color="#9121C2"/><stop offset="1" stop-color="#BB399C"/></linearGradient><linearGradient id="paint3_linear_3_515" x1="7.968" x2="6.313" y1="12.696" y2="15.466" gradientUnits="userSpaceOnUse"><stop stop-color="#9121C2"/><stop offset="1" stop-color="#BB399C"/></linearGradient><linearGradient id="paint4_linear_3_515" x1="11.952" x2="6.599" y1=".928" y2="3.168" gradientUnits="userSpaceOnUse"><stop stop-color="#9121C2"/><stop offset="1" stop-color="#BB399C"/></linearGradient><linearGradient id="paint5_linear_3_515" x1="15.355" x2="13.7" y1="12.978" y2="15.748" gradientUnits="userSpaceOnUse"><stop stop-color="#9121C2"/><stop offset="1" stop-color="#BB399C"/></linearGradient></defs></svg>